REM DIRINDEX 1\2\4,1\2\5,1\2\6,1\3\7,1\3\8,1\3\9,1\3\10
REM DIRNAME cjc057,folder01,folder02,folder03,folder04,folder05,folder06,folder07,folder08,folder09
TITLE ""
FILE "b_027.mp3" MP3
  TRACK 01 AUDIO
    TITLE "0:"
    INDEX 01 00:00:00
  TRACK 02 AUDIO
    TITLE "7:cjc057_05066"
    INDEX 01 00:00:09
  TRACK 03 AUDIO
    TITLE "0:"
    INDEX 01 00:01:13
  TRACK 04 AUDIO
    TITLE "8:cjc057_05067"
    INDEX 01 00:01:42
  TRACK 05 AUDIO
    TITLE "0:"
    INDEX 01 00:02:63
  TRACK 06 AUDIO
    TITLE "9:cjc057_05068"
    INDEX 01 00:03:27
  TRACK 07 AUDIO
    TITLE "0:"
    INDEX 01 00:06:04
  TRACK 08 AUDIO
    TITLE "7:cjc057_05069"
    INDEX 01 00:07:07
  TRACK 09 AUDIO
    TITLE "0:"
    INDEX 01 00:08:21
  TRACK 10 AUDIO
    TITLE "8:cjc057_05070"
    INDEX 01 00:08:50
  TRACK 11 AUDIO
    TITLE "0:"
    INDEX 01 00:10:06
  TRACK 12 AUDIO
    TITLE "9:cjc057_05071"
    INDEX 01 00:10:47
  TRACK 13 AUDIO
    TITLE "0:"
    INDEX 01 00:14:31
  TRACK 14 AUDIO
    TITLE "7:cjc057_05072"
    INDEX 01 00:15:32
  TRACK 15 AUDIO
    TITLE "0:"
    INDEX 01 00:16:53
  TRACK 16 AUDIO
    TITLE "8:cjc057_05073"
    INDEX 01 00:17:08
  TRACK 17 AUDIO
    TITLE "0:"
    INDEX 01 00:18:56
  TRACK 18 AUDIO
    TITLE "9:cjc057_05074"
    INDEX 01 00:19:22
  TRACK 19 AUDIO
    TITLE "0:"
    INDEX 01 00:22:05
  TRACK 20 AUDIO
    TITLE "7:cjc057_05075"
    INDEX 01 00:23:06
  TRACK 21 AUDIO
    TITLE "0:"
    INDEX 01 00:24:20
  TRACK 22 AUDIO
    TITLE "8:cjc057_05076"
    INDEX 01 00:24:49
  TRACK 23 AUDIO
    TITLE "0:"
    INDEX 01 00:26:13
  TRACK 24 AUDIO
    TITLE "9:cjc057_05077"
    INDEX 01 00:26:56
  TRACK 25 AUDIO
    TITLE "0:"
    INDEX 01 00:30:28
  TRACK 26 AUDIO
    TITLE "7:cjc057_05078"
    INDEX 01 00:31:33
  TRACK 27 AUDIO
    TITLE "0:"
    INDEX 01 00:32:58
  TRACK 28 AUDIO
    TITLE "8:cjc057_05079"
    INDEX 01 00:33:11
  TRACK 29 AUDIO
    TITLE "0:"
    INDEX 01 00:34:51
  TRACK 30 AUDIO
    TITLE "9:cjc057_05080"
    INDEX 01 00:35:17
  TRACK 31 AUDIO
    TITLE "0:"
    INDEX 01 00:38:59
  TRACK 32 AUDIO
    TITLE "7:cjc057_05081"
    INDEX 01 00:39:64
  TRACK 33 AUDIO
    TITLE "0:"
    INDEX 01 00:41:00
  TRACK 34 AUDIO
    TITLE "8:cjc057_05082"
    INDEX 01 00:41:30
  TRACK 35 AUDIO
    TITLE "0:"
    INDEX 01 00:42:74
  TRACK 36 AUDIO
    TITLE "9:cjc057_05083"
    INDEX 01 00:43:42
  TRACK 37 AUDIO
    TITLE "0:"
    INDEX 01 00:47:13
  TRACK 38 AUDIO
    TITLE "7:cjc057_05084"
    INDEX 01 00:48:16
  TRACK 39 AUDIO
    TITLE "0:"
    INDEX 01 00:49:43
  TRACK 40 AUDIO
    TITLE "8:cjc057_05085"
    INDEX 01 00:49:69
  TRACK 41 AUDIO
    TITLE "0:"
    INDEX 01 00:52:10
  TRACK 42 AUDIO
    TITLE "9:cjc057_05086"
    INDEX 01 00:52:49
  TRACK 43 AUDIO
    TITLE "0:"
    INDEX 01 00:55:42
  TRACK 44 AUDIO
    TITLE "7:cjc057_05087"
    INDEX 01 00:56:47
  TRACK 45 AUDIO
    TITLE "0:"
    INDEX 01 00:57:68
  TRACK 46 AUDIO
    TITLE "8:cjc057_05088"
    INDEX 01 00:58:22
  TRACK 47 AUDIO
    TITLE "0:"
    INDEX 01 00:59:34
  TRACK 48 AUDIO
    TITLE "9:cjc057_05089"
    INDEX 01 00:59:73
  TRACK 49 AUDIO
    TITLE "0:"
    INDEX 01 01:03:33
  TRACK 50 AUDIO
    TITLE "7:cjc057_05090"
    INDEX 01 01:04:37
  TRACK 51 AUDIO
    TITLE "0:"
    INDEX 01 01:05:46
  TRACK 52 AUDIO
    TITLE "8:cjc057_05091"
    INDEX 01 01:05:73
  TRACK 53 AUDIO
    TITLE "0:"
    INDEX 01 01:07:10
  TRACK 54 AUDIO
    TITLE "9:cjc057_05092"
    INDEX 01 01:07:53
  TRACK 55 AUDIO
    TITLE "0:"
    INDEX 01 01:11:21
  TRACK 56 AUDIO
    TITLE "7:cjc057_05093"
    INDEX 01 01:12:24
  TRACK 57 AUDIO
    TITLE "0:"
    INDEX 01 01:13:38
  TRACK 58 AUDIO
    TITLE "8:cjc057_05094"
    INDEX 01 01:13:69
  TRACK 59 AUDIO
    TITLE "0:"
    INDEX 01 01:15:11
  TRACK 60 AUDIO
    TITLE "9:cjc057_05095"
    INDEX 01 01:15:54
  TRACK 61 AUDIO
    TITLE "0:"
    INDEX 01 01:18:62
